<svg width="479" height="134" viewBox="0 0 479 134" fill="none" xmlns="http://www.w3.org/2000/svg">
<rect width="478.836" height="134" rx="14" fill="white"/>
<path d="M136.43 30H59.8879C56.6495 30 54 32.6495 54 35.8879V97.7103C54 100.949 56.6495 103.598 59.8879 103.598H136.43C139.668 103.598 142.318 100.949 142.318 97.7103V35.8879C142.318 32.6495 139.668 30 136.43 30ZM138.393 97.7103C138.393 98.7897 137.509 99.6729 136.43 99.6729H59.8879C58.8084 99.6729 57.9252 98.7897 57.9252 97.7103V45.7991H138.393V97.7103ZM138.393 41.8738H57.9252V35.8879C57.9252 34.8084 58.8084 33.9252 59.8879 33.9252H136.43C137.509 33.9252 138.393 34.8084 138.393 35.8879V41.8738Z" fill="url(#paint0_linear_1106_2)"/>
<path d="M74.0187 36.0841C72.8411 36.0841 71.9579 36.9673 71.9579 38.1449C71.9579 39.3224 72.8411 40.2056 74.0187 40.2056C75.1963 40.2056 76.0794 39.3224 76.0794 38.1449C76.0794 36.9673 75.1963 36.0841 74.0187 36.0841Z" fill="url(#paint1_linear_1106_2)"/>
<path d="M68.3271 36.0841C67.1495 36.0841 66.2664 36.9673 66.2664 38.1449C66.2664 39.3224 67.1495 40.2056 68.3271 40.2056C69.5047 40.2056 70.3879 39.3224 70.3879 38.1449C70.3879 36.9673 69.5047 36.0841 68.3271 36.0841Z" fill="url(#paint2_linear_1106_2)"/>
<path d="M62.6355 36.0841C61.4579 36.0841 60.5748 36.9673 60.5748 38.1449C60.5748 39.3224 61.5561 40.2056 62.6355 40.2056C63.8131 40.2056 64.6963 39.3224 64.6963 38.1449C64.6963 36.9673 63.8131 36.0841 62.6355 36.0841Z" fill="url(#paint3_linear_1106_2)"/>
<path d="M169.344 46.5986V66.7436H162V16.4822H197.372V23.8934H169.344V39.12C170.736 38.3115 172.286 37.7726 173.993 37.5031C175.25 37.2785 176.867 37.1662 178.844 37.1662H189.826V44.6447H178.844C177.002 44.6447 175.385 44.757 173.993 44.9816C172.286 45.296 170.736 45.835 169.344 46.5986ZM252.282 41.276C252.282 37.6827 251.361 34.4263 249.519 31.5067C247.768 28.677 245.376 26.4537 242.344 24.8367C239.312 23.2197 236.022 22.4112 232.474 22.4112C228.791 22.4112 225.433 23.2421 222.401 24.904C219.369 26.5659 217 28.8342 215.293 31.7089C213.541 34.7182 212.666 38.0645 212.666 41.7476C212.666 45.2511 213.609 48.4851 215.495 51.4496C217.292 54.2344 219.706 56.4465 222.738 58.0859C225.77 59.7254 229.049 60.5451 232.575 60.5451C236.101 60.5451 239.38 59.6917 242.411 57.9849C245.443 56.2781 247.835 53.9873 249.587 51.1127C251.383 48.1033 252.282 44.8244 252.282 41.276ZM259.558 41.6803C259.558 46.5312 258.301 51.0004 255.785 55.0878C253.36 58.9955 250.07 62.1059 245.915 64.4191C241.76 66.7323 237.28 67.8889 232.474 67.8889C227.488 67.8889 222.906 66.6762 218.729 64.2507C214.642 61.9151 211.43 58.7035 209.095 54.6162C206.669 50.4389 205.457 45.8575 205.457 40.8718C205.457 36.0657 206.737 31.6415 209.297 27.599C211.722 23.7362 215.012 20.6707 219.167 18.4024C223.322 16.1341 227.78 15 232.541 15C237.437 15 241.973 16.1903 246.151 18.5708C250.238 20.9065 253.472 24.0731 255.853 28.0706C258.323 32.2479 259.558 36.7844 259.558 41.6803ZM314.064 22.9502L309.348 28.4749C307.506 26.5884 305.305 25.1062 302.745 24.0282C300.185 22.9502 297.49 22.4112 294.66 22.4112C290.977 22.4112 287.62 23.2421 284.588 24.904C281.556 26.5659 279.187 28.8342 277.48 31.7089C275.728 34.7182 274.852 38.0645 274.852 41.7476C274.852 45.2511 275.795 48.4851 277.682 51.4496C279.479 54.2344 281.893 56.4465 284.925 58.0859C287.956 59.7254 291.224 60.5451 294.728 60.5451C297.962 60.5451 300.971 59.8489 303.756 58.4565C306.541 57.0641 308.854 55.1327 310.695 52.6623L315.209 58.7934C312.649 61.668 309.584 63.9026 306.013 65.4971C302.442 67.0917 298.658 67.8889 294.66 67.8889C289.675 67.8889 285.093 66.6762 280.916 64.2507C276.828 61.9151 273.617 58.7035 271.281 54.6162C268.856 50.4389 267.643 45.8575 267.643 40.8718C267.643 36.0657 268.923 31.6415 271.483 27.599C273.909 23.7362 277.199 20.6707 281.354 18.4024C285.509 16.1341 289.966 15 294.728 15C298.456 15 302.004 15.7187 305.373 17.156C308.652 18.5035 311.549 20.4349 314.064 22.9502ZM347.886 67.8889C343.17 67.8889 339.116 67.0692 335.725 65.4298C332.334 63.7903 329.751 61.421 327.977 58.3218C326.203 55.2225 325.316 51.5169 325.316 47.205V16.4822H332.592V47.205C332.592 51.5169 333.917 54.8183 336.567 57.109C339.217 59.3997 342.99 60.5451 347.886 60.5451C352.782 60.5451 356.555 59.3997 359.205 57.109C361.855 54.8183 363.18 51.5169 363.18 47.205V16.4822H370.456V47.205C370.456 51.5169 369.569 55.2225 367.795 58.3218C366.021 61.421 363.438 63.7903 360.047 65.4298C356.656 67.0692 352.602 67.8889 347.886 67.8889ZM423.682 51.4496C423.682 54.7284 422.694 57.648 420.718 60.2082C418.786 62.6337 416.125 64.5202 412.734 65.8677C409.343 67.2152 405.514 67.8889 401.247 67.8889C397.339 67.8889 393.543 66.9794 389.86 65.1603C386.177 63.3411 383.078 60.8146 380.563 57.5806L385.818 52.6623C390.175 57.9175 395.318 60.5451 401.247 60.5451C403.852 60.5451 406.232 60.2307 408.388 59.6019C410.769 58.8832 412.61 57.8726 413.913 56.57C415.395 55.1327 416.136 53.4259 416.136 51.4496C416.136 49.069 415.395 47.2723 413.913 46.0596C412.655 45.0265 410.791 44.3528 408.321 44.0384C406.884 43.8587 404.525 43.7689 401.247 43.7689C395.228 43.7689 390.635 42.6684 387.468 40.4675C384.302 38.2666 382.719 35.0327 382.719 30.7656C382.719 28.0706 383.516 25.5104 385.11 23.0849C386.705 20.6595 388.895 18.7281 391.679 17.2907C394.554 15.7636 397.743 15 401.247 15C405.199 15 408.77 15.6064 411.959 16.8191C415.373 18.1217 418.539 20.1654 421.459 22.9502L416.877 28.3401C414.138 26.1392 411.645 24.6009 409.399 23.725C407.153 22.8491 404.436 22.4112 401.247 22.4112C399.405 22.4112 397.687 22.793 396.092 23.5566C394.498 24.3201 393.229 25.342 392.286 26.6221C391.343 27.9022 390.871 29.2609 390.871 30.6982C390.871 34.561 394.442 36.4924 401.583 36.4924C407.288 36.4924 411.802 37.0763 415.126 38.2442C418.27 39.3671 420.516 41.0739 421.863 43.3646C423.076 45.3859 423.682 48.0808 423.682 51.4496Z" fill="#393E46"/>
<path d="M208.301 79.1368H214.243L201.945 117.686H195.847L188.406 94.8977L181.171 117.686H175.074L162 79.1368H167.788L178.019 107.971L185.254 85.2345L183.29 79.1368H189.078L198.793 107.971L208.301 79.1368ZM227.266 117.686H221.736V79.1368H227.266V117.686ZM239.771 84.5627L235.275 79.1368H242.561L267.314 108.592V79.1368H272.998V117.686H267.417L245.3 91.1771V117.686H239.771V84.5627ZM292.066 84.8211V112.054H300.799C303.211 112.054 305.381 111.434 307.31 110.194C309.136 108.988 310.566 107.369 311.599 105.336C312.633 103.304 313.149 101.081 313.149 98.67C313.149 96.1551 312.658 93.847 311.677 91.7455C310.695 89.6441 309.291 87.9733 307.465 86.7331C305.501 85.4584 303.245 84.8211 300.696 84.8211H292.066ZM283.488 84.8211L281.008 79.1368H300.644C304.055 79.1368 307.172 80.0153 309.997 81.7723C312.719 83.4603 314.872 85.7685 316.457 88.6967C318.041 91.625 318.834 94.8116 318.834 98.2566C318.834 100.84 318.326 103.398 317.309 105.93C316.293 108.462 314.889 110.676 313.098 112.571C311.375 114.431 309.532 115.757 307.568 116.55C305.674 117.307 303.417 117.686 300.799 117.686H286.537V84.8211H283.488ZM360.949 98.1532C360.949 95.3972 360.243 92.8996 358.83 90.6604C357.487 88.49 355.652 86.7847 353.327 85.5445C351.001 84.3043 348.478 83.6842 345.756 83.6842C342.931 83.6842 340.356 84.3216 338.031 85.5962C335.706 86.8709 333.888 88.6106 332.579 90.8154C331.236 93.1235 330.564 95.6901 330.564 98.515C330.564 101.202 331.287 103.682 332.734 105.956C334.112 108.092 335.964 109.789 338.289 111.046C340.615 112.304 343.13 112.932 345.834 112.932C348.538 112.932 351.053 112.278 353.378 110.969C355.704 109.66 357.538 107.903 358.882 105.698C360.26 103.39 360.949 100.875 360.949 98.1532ZM366.53 98.4633C366.53 102.184 365.565 105.612 363.636 108.747C361.776 111.744 359.252 114.129 356.065 115.904C352.879 117.678 349.442 118.565 345.756 118.565C341.932 118.565 338.418 117.635 335.215 115.774C332.08 113.983 329.616 111.52 327.825 108.385C325.965 105.181 325.035 101.667 325.035 97.8432C325.035 94.157 326.016 90.7637 327.98 87.6632C329.84 84.7005 332.364 82.3493 335.551 80.6096C338.737 78.8699 342.156 78 345.808 78C349.563 78 353.042 78.9129 356.246 80.7388C359.381 82.5302 361.862 84.9589 363.688 88.0249C365.582 91.2288 366.53 94.7082 366.53 98.4633ZM417.74 79.1368H423.682L411.384 117.686H405.286L397.845 94.8977L390.61 117.686H384.513L371.439 79.1368H377.226L387.458 107.971L394.693 85.2345L392.729 79.1368H398.516L408.231 107.971L417.74 79.1368Z" fill="#393E46"/>
<defs>
<linearGradient id="paint0_linear_1106_2" x1="49" y1="62" x2="185.5" y2="73" gradientUnits="userSpaceOnUse">
<stop stop-color="#0087CA"/>
<stop offset="0.426075" stop-color="#00CACA"/>
<stop offset="1" stop-color="#0087CA"/>
</linearGradient>
<linearGradient id="paint1_linear_1106_2" x1="49" y1="62" x2="185.5" y2="73" gradientUnits="userSpaceOnUse">
<stop stop-color="#0087CA"/>
<stop offset="0.426075" stop-color="#00CACA"/>
<stop offset="1" stop-color="#0087CA"/>
</linearGradient>
<linearGradient id="paint2_linear_1106_2" x1="49" y1="62" x2="185.5" y2="73" gradientUnits="userSpaceOnUse">
<stop stop-color="#0087CA"/>
<stop offset="0.426075" stop-color="#00CACA"/>
<stop offset="1" stop-color="#0087CA"/>
</linearGradient>
<linearGradient id="paint3_linear_1106_2" x1="49" y1="62" x2="185.5" y2="73" gradientUnits="userSpaceOnUse">
<stop stop-color="#0087CA"/>
<stop offset="0.426075" stop-color="#00CACA"/>
<stop offset="1" stop-color="#0087CA"/>
</linearGradient>
</defs>
</svg>
