<svg width="1920" height="256" viewBox="0 0 1920 256" fill="none" xmlns="http://www.w3.org/2000/svg">
<rect width="1920" height="256" rx="26.7524" fill="white"/>
<path d="M762.702 57.3267H616.439C610.251 57.3267 605.188 62.3896 605.188 68.5777V186.713C605.188 192.901 610.251 197.964 616.439 197.964H762.702C768.89 197.964 773.953 192.901 773.953 186.713V68.5777C773.953 62.3896 768.89 57.3267 762.702 57.3267ZM766.452 186.713C766.452 188.776 764.765 190.463 762.702 190.463H616.439C614.376 190.463 612.689 188.776 612.689 186.713V87.5168H766.452V186.713ZM766.452 80.0162H612.689V68.5777C612.689 66.515 614.376 64.8273 616.439 64.8273H762.702C764.765 64.8273 766.452 66.515 766.452 68.5777V80.0162Z" fill="url(#paint0_linear_1106_2)"/>
<path d="M643.441 68.9527C641.191 68.9527 639.504 70.6403 639.504 72.8905C639.504 75.1407 641.191 76.8284 643.441 76.8284C645.692 76.8284 647.379 75.1407 647.379 72.8905C647.379 70.6403 645.692 68.9527 643.441 68.9527Z" fill="url(#paint1_linear_1106_2)"/>
<path d="M632.565 68.9527C630.315 68.9527 628.628 70.6403 628.628 72.8905C628.628 75.1407 630.315 76.8284 632.565 76.8284C634.816 76.8284 636.503 75.1407 636.503 72.8905C636.503 70.6403 634.816 68.9527 632.565 68.9527Z" fill="url(#paint2_linear_1106_2)"/>
<path d="M621.689 68.9527C619.439 68.9527 617.752 70.6403 617.752 72.8905C617.752 75.1407 619.627 76.8284 621.689 76.8284C623.94 76.8284 625.627 75.1407 625.627 72.8905C625.627 70.6403 623.94 68.9527 621.689 68.9527Z" fill="url(#paint3_linear_1106_2)"/>
<path fill-rule="evenodd" clip-rule="evenodd" d="M766.452 80.0162H612.689V68.5777C612.689 66.515 614.376 64.8273 616.439 64.8273H762.702C764.765 64.8273 766.452 66.515 766.452 68.5777V80.0162ZM617.752 72.8905C617.752 70.6403 619.439 68.9527 621.689 68.9527C623.94 68.9527 625.627 70.6403 625.627 72.8905C625.627 75.1407 623.94 76.8284 621.689 76.8284C619.627 76.8284 617.752 75.1407 617.752 72.8905ZM628.628 72.8905C628.628 70.6403 630.315 68.9527 632.565 68.9527C634.816 68.9527 636.503 70.6403 636.503 72.8905C636.503 75.1407 634.816 76.8284 632.565 76.8284C630.315 76.8284 628.628 75.1407 628.628 72.8905ZM639.504 72.8905C639.504 70.6403 641.191 68.9527 643.441 68.9527C645.692 68.9527 647.379 70.6403 647.379 72.8905C647.379 75.1407 645.692 76.8284 643.441 76.8284C641.191 76.8284 639.504 75.1407 639.504 72.8905Z" fill="#F5FCFF"/>
<path d="M612.689 186.713C612.689 188.776 614.376 190.463 616.439 190.463H762.702C764.765 190.463 766.452 188.776 766.452 186.713V87.5168H612.689V186.713Z" fill="#F5FCFF"/>
<path d="M825.597 89.0448V127.539H811.563V31.496H879.154V45.6579H825.597V74.7542C828.257 73.2092 831.218 72.1793 834.48 71.6643C836.883 71.2351 839.973 71.0206 843.75 71.0206H864.735V85.3112H843.75C840.231 85.3112 837.141 85.5258 834.48 85.9549C831.218 86.5558 828.257 87.5857 825.597 89.0448ZM984.081 78.874C984.081 72.0076 982.322 65.785 978.803 60.206C975.455 54.7987 970.885 50.5502 965.092 47.4603C959.298 44.3704 953.011 42.8255 946.23 42.8255C939.192 42.8255 932.777 44.4133 926.983 47.589C921.19 50.7647 916.662 55.0991 913.401 60.5923C910.053 66.3429 908.379 72.7372 908.379 79.7752C908.379 86.4699 910.182 92.6497 913.787 98.3144C917.22 103.636 921.833 107.863 927.627 110.996C933.42 114.129 939.686 115.695 946.424 115.695C953.161 115.695 959.427 114.064 965.22 110.803C971.014 107.541 975.584 103.164 978.932 97.6707C982.365 91.9201 984.081 85.6545 984.081 78.874ZM997.986 79.6465C997.986 88.9161 995.583 97.4562 990.776 105.267C986.141 112.734 979.854 118.678 971.915 123.098C963.976 127.518 955.414 129.728 946.23 129.728C936.703 129.728 927.949 127.411 919.966 122.776C912.156 118.313 906.019 112.176 901.556 104.365C896.921 96.3833 894.604 87.6286 894.604 78.1015C894.604 68.9177 897.05 60.4635 901.942 52.7388C906.577 45.3575 912.864 39.4996 920.803 35.1652C928.743 30.8308 937.261 28.6636 946.359 28.6636C955.715 28.6636 964.383 30.9381 972.366 35.487C980.176 39.9502 986.356 46.0012 990.905 53.64C995.625 61.6222 997.986 70.291 997.986 79.6465ZM1102.14 43.8554L1093.13 54.4125C1089.61 50.8077 1085.4 47.9753 1080.51 45.9154C1075.62 43.8554 1070.47 42.8255 1065.06 42.8255C1058.02 42.8255 1051.61 44.4133 1045.81 47.589C1040.02 50.7647 1035.49 55.0991 1032.23 60.5923C1028.88 66.3429 1027.21 72.7372 1027.21 79.7752C1027.21 86.4699 1029.01 92.6497 1032.62 98.3144C1036.05 103.636 1040.66 107.863 1046.46 110.996C1052.25 114.129 1058.5 115.695 1065.19 115.695C1071.37 115.695 1077.12 114.365 1082.44 111.704C1087.76 109.043 1092.18 105.352 1095.7 100.632L1104.33 112.348C1099.44 117.841 1093.58 122.111 1086.76 125.158C1079.93 128.205 1072.7 129.728 1065.06 129.728C1055.53 129.728 1046.78 127.411 1038.8 122.776C1030.99 118.313 1024.85 112.176 1020.39 104.365C1015.75 96.3833 1013.44 87.6286 1013.44 78.1015C1013.44 68.9177 1015.88 60.4635 1020.77 52.7388C1025.41 45.3575 1031.7 39.4996 1039.63 35.1652C1047.57 30.8308 1056.09 28.6636 1065.19 28.6636C1072.31 28.6636 1079.09 30.0369 1085.53 32.7834C1091.8 35.3583 1097.33 39.049 1102.14 43.8554ZM1166.77 129.728C1157.76 129.728 1150.01 128.162 1143.53 125.029C1137.05 121.896 1132.12 117.369 1128.73 111.446C1125.34 105.524 1123.64 98.4432 1123.64 90.2035V31.496H1137.54V90.2035C1137.54 98.4432 1140.08 104.752 1145.14 109.129C1150.2 113.506 1157.41 115.695 1166.77 115.695C1176.13 115.695 1183.34 113.506 1188.4 109.129C1193.46 104.752 1196 98.4432 1196 90.2035V31.496H1209.9V90.2035C1209.9 98.4432 1208.2 105.524 1204.81 111.446C1201.42 117.369 1196.49 121.896 1190.01 125.029C1183.53 128.162 1175.78 129.728 1166.77 129.728ZM1311.61 98.3144C1311.61 104.58 1309.72 110.159 1305.94 115.051C1302.25 119.686 1297.17 123.291 1290.69 125.866C1284.21 128.441 1276.89 129.728 1268.74 129.728C1261.27 129.728 1254.02 127.99 1246.98 124.514C1239.94 121.038 1234.02 116.21 1229.21 110.03L1239.25 100.632C1247.58 110.674 1257.41 115.695 1268.74 115.695C1273.71 115.695 1278.26 115.094 1282.38 113.893C1286.93 112.519 1290.45 110.588 1292.94 108.099C1295.77 105.352 1297.19 102.091 1297.19 98.3144C1297.19 93.7655 1295.77 90.3323 1292.94 88.0149C1290.54 86.0408 1286.97 84.7533 1282.25 84.1525C1279.51 83.8092 1275 83.6376 1268.74 83.6376C1257.23 83.6376 1248.46 81.5347 1242.41 77.3291C1236.36 73.1234 1233.33 66.9437 1233.33 58.7898C1233.33 53.64 1234.85 48.7477 1237.9 44.1129C1240.95 39.4781 1245.13 35.7874 1250.45 33.0409C1255.95 30.1227 1262.04 28.6636 1268.74 28.6636C1276.29 28.6636 1283.11 29.8223 1289.21 32.1397C1295.73 34.6287 1301.78 38.534 1307.36 43.8554L1298.6 54.155C1293.37 49.9494 1288.61 47.0097 1284.31 45.336C1280.02 43.6623 1274.83 42.8255 1268.74 42.8255C1265.22 42.8255 1261.93 43.555 1258.89 45.0141C1255.84 46.4733 1253.42 48.4259 1251.61 50.872C1249.81 53.3182 1248.91 55.9145 1248.91 58.6611C1248.91 66.0424 1255.73 69.7331 1269.38 69.7331C1280.28 69.7331 1288.91 70.8489 1295.26 73.0805C1301.27 75.2262 1305.56 78.4878 1308.13 82.8651C1310.45 86.7274 1311.61 91.8772 1311.61 98.3144Z" fill="#393E46"/>
<path d="M900.039 151.222H911.395L887.893 224.885H876.241L862.022 181.339L848.198 224.885H836.546L811.563 151.222H822.623L842.174 206.321L855.999 162.874L852.246 151.222H863.306L881.87 206.321L900.039 151.222ZM936.278 224.885H925.713V151.222H936.278V224.885ZM960.175 161.59L951.584 151.222H965.507L1012.81 207.506V151.222H1023.67V224.885H1013L970.74 174.229V224.885H960.175V161.59ZM1060.1 162.084V214.122H1076.79C1081.4 214.122 1085.55 212.937 1089.23 210.567C1092.72 208.263 1095.46 205.169 1097.43 201.285C1099.4 197.401 1100.39 193.155 1100.39 188.547C1100.39 183.742 1099.45 179.331 1097.58 175.315C1095.7 171.3 1093.02 168.107 1089.53 165.737C1085.78 163.301 1081.47 162.084 1076.59 162.084H1060.1ZM1043.71 162.084L1038.97 151.222H1076.5C1083.01 151.222 1088.97 152.9 1094.37 156.258C1099.57 159.483 1103.68 163.894 1106.71 169.489C1109.74 175.085 1111.25 181.174 1111.25 187.757C1111.25 192.694 1110.28 197.582 1108.34 202.421C1106.4 207.259 1103.72 211.489 1100.29 215.11C1097 218.664 1093.48 221.199 1089.73 222.713C1086.11 224.161 1081.8 224.885 1076.79 224.885H1049.54V162.084H1043.71ZM1191.73 187.56C1191.73 182.293 1190.38 177.521 1187.68 173.242C1185.12 169.094 1181.61 165.836 1177.17 163.466C1172.72 161.096 1167.9 159.911 1162.7 159.911C1157.3 159.911 1152.38 161.129 1147.94 163.565C1143.49 166 1140.02 169.325 1137.52 173.538C1134.95 177.949 1133.67 182.853 1133.67 188.251C1133.67 193.386 1135.05 198.125 1137.82 202.47C1140.45 206.552 1143.99 209.794 1148.43 212.197C1152.88 214.599 1157.68 215.801 1162.85 215.801C1168.02 215.801 1172.82 214.55 1177.27 212.049C1181.71 209.547 1185.21 206.19 1187.78 201.977C1190.41 197.566 1191.73 192.76 1191.73 187.56ZM1202.4 188.152C1202.4 195.262 1200.55 201.812 1196.87 207.802C1193.31 213.53 1188.49 218.088 1182.4 221.479C1176.31 224.869 1169.74 226.564 1162.7 226.564C1155.39 226.564 1148.68 224.787 1142.56 221.232C1136.57 217.809 1131.86 213.102 1128.44 207.111C1124.88 200.989 1123.1 194.274 1123.1 186.967C1123.1 179.923 1124.98 173.439 1128.73 167.515C1132.29 161.853 1137.11 157.36 1143.2 154.036C1149.29 150.711 1155.82 149.049 1162.8 149.049C1169.97 149.049 1176.62 150.794 1182.75 154.283C1188.74 157.706 1193.48 162.347 1196.96 168.206C1200.59 174.328 1202.4 180.977 1202.4 188.152ZM1300.25 151.222H1311.61L1288.11 224.885H1276.45L1262.24 181.339L1248.41 224.885H1236.76L1211.78 151.222H1222.84L1242.39 206.321L1256.21 162.874L1252.46 151.222H1263.52L1282.08 206.321L1300.25 151.222Z" fill="#393E46"/>
<defs>
<linearGradient id="paint0_linear_1106_2" x1="595.634" y1="118.475" x2="856.469" y2="139.495" gradientUnits="userSpaceOnUse">
<stop stop-color="#0087CA"/>
<stop offset="0.426075" stop-color="#00CACA"/>
<stop offset="1" stop-color="#0087CA"/>
</linearGradient>
<linearGradient id="paint1_linear_1106_2" x1="595.634" y1="118.475" x2="856.469" y2="139.495" gradientUnits="userSpaceOnUse">
<stop stop-color="#0087CA"/>
<stop offset="0.426075" stop-color="#00CACA"/>
<stop offset="1" stop-color="#0087CA"/>
</linearGradient>
<linearGradient id="paint2_linear_1106_2" x1="595.634" y1="118.475" x2="856.469" y2="139.495" gradientUnits="userSpaceOnUse">
<stop stop-color="#0087CA"/>
<stop offset="0.426075" stop-color="#00CACA"/>
<stop offset="1" stop-color="#0087CA"/>
</linearGradient>
<linearGradient id="paint3_linear_1106_2" x1="595.634" y1="118.475" x2="856.469" y2="139.495" gradientUnits="userSpaceOnUse">
<stop stop-color="#0087CA"/>
<stop offset="0.426075" stop-color="#00CACA"/>
<stop offset="1" stop-color="#0087CA"/>
</linearGradient>
</defs>
</svg>
