<svg width="89" height="74" viewBox="0 0 89 74" fill="none" xmlns="http://www.w3.org/2000/svg">
<path d="M82.4299 0H5.88785C2.64953 0 0 2.64953 0 5.88785V67.7103C0 70.9486 2.64953 73.5981 5.88785 73.5981H82.4299C85.6682 73.5981 88.3178 70.9486 88.3178 67.7103V5.88785C88.3178 2.64953 85.6682 0 82.4299 0ZM84.3925 67.7103C84.3925 68.7897 83.5093 69.6729 82.4299 69.6729H5.88785C4.80841 69.6729 3.92523 68.7897 3.92523 67.7103V15.7991H84.3925V67.7103ZM84.3925 11.8738H3.92523V5.88785C3.92523 4.80841 4.80841 3.92523 5.88785 3.92523H82.4299C83.5093 3.92523 84.3925 4.80841 84.3925 5.88785V11.8738Z" fill="url(#paint0_linear_1106_27)"/>
<path d="M20.0187 6.08411C18.8411 6.08411 17.9579 6.96729 17.9579 8.14486C17.9579 9.32243 18.8411 10.2056 20.0187 10.2056C21.1963 10.2056 22.0794 9.32243 22.0794 8.14486C22.0794 6.96729 21.1963 6.08411 20.0187 6.08411Z" fill="url(#paint1_linear_1106_27)"/>
<path d="M14.3271 6.08411C13.1495 6.08411 12.2664 6.96729 12.2664 8.14486C12.2664 9.32243 13.1495 10.2056 14.3271 10.2056C15.5047 10.2056 16.3879 9.32243 16.3879 8.14486C16.3879 6.96729 15.5047 6.08411 14.3271 6.08411Z" fill="url(#paint2_linear_1106_27)"/>
<path d="M8.63551 6.08411C7.45794 6.08411 6.57477 6.96729 6.57477 8.14486C6.57477 9.32243 7.55607 10.2056 8.63551 10.2056C9.81308 10.2056 10.6963 9.32243 10.6963 8.14486C10.6963 6.96729 9.81308 6.08411 8.63551 6.08411Z" fill="url(#paint3_linear_1106_27)"/>
<path fill-rule="evenodd" clip-rule="evenodd" d="M84.3925 11.8738H3.92523V5.88785C3.92523 4.80841 4.80841 3.92523 5.88785 3.92523H82.4299C83.5093 3.92523 84.3925 4.80841 84.3925 5.88785V11.8738ZM6.57477 8.14486C6.57477 6.96729 7.45794 6.08411 8.63551 6.08411C9.81308 6.08411 10.6963 6.96729 10.6963 8.14486C10.6963 9.32243 9.81308 10.2056 8.63551 10.2056C7.55607 10.2056 6.57477 9.32243 6.57477 8.14486ZM12.2664 8.14486C12.2664 6.96729 13.1495 6.08411 14.3271 6.08411C15.5047 6.08411 16.3879 6.96729 16.3879 8.14486C16.3879 9.32243 15.5047 10.2056 14.3271 10.2056C13.1495 10.2056 12.2664 9.32243 12.2664 8.14486ZM17.9579 8.14486C17.9579 6.96729 18.8411 6.08411 20.0187 6.08411C21.1963 6.08411 22.0794 6.96729 22.0794 8.14486C22.0794 9.32243 21.1963 10.2056 20.0187 10.2056C18.8411 10.2056 17.9579 9.32243 17.9579 8.14486Z" fill="#F5FCFF"/>
<path d="M3.92523 67.7103C3.92523 68.7897 4.80841 69.6729 5.88785 69.6729H82.4299C83.5093 69.6729 84.3925 68.7897 84.3925 67.7103V15.7991H3.92523V67.7103Z" fill="#F5FCFF"/>
<defs>
<linearGradient id="paint0_linear_1106_27" x1="-5" y1="32" x2="131.5" y2="43" gradientUnits="userSpaceOnUse">
<stop stop-color="#0087CA"/>
<stop offset="0.426075" stop-color="#00CACA"/>
<stop offset="1" stop-color="#0087CA"/>
</linearGradient>
<linearGradient id="paint1_linear_1106_27" x1="-5" y1="32" x2="131.5" y2="43" gradientUnits="userSpaceOnUse">
<stop stop-color="#0087CA"/>
<stop offset="0.426075" stop-color="#00CACA"/>
<stop offset="1" stop-color="#0087CA"/>
</linearGradient>
<linearGradient id="paint2_linear_1106_27" x1="-5" y1="32" x2="131.5" y2="43" gradientUnits="userSpaceOnUse">
<stop stop-color="#0087CA"/>
<stop offset="0.426075" stop-color="#00CACA"/>
<stop offset="1" stop-color="#0087CA"/>
</linearGradient>
<linearGradient id="paint3_linear_1106_27" x1="-5" y1="32" x2="131.5" y2="43" gradientUnits="userSpaceOnUse">
<stop stop-color="#0087CA"/>
<stop offset="0.426075" stop-color="#00CACA"/>
<stop offset="1" stop-color="#0087CA"/>
</linearGradient>
</defs>
</svg>
